<svg width="70" height="70" viewBox="0 0 70 70" fill="none" xmlns="http://www.w3.org/2000/svg">
<g clip-path="url(#clip0_108_66)">
<path d="M40.845 17.5C40.845 15.9529 40.2304 14.4692 39.1365 13.3752C38.0425 12.2813 36.5588 11.6667 35.0117 11.6667C33.4646 11.6667 31.9808 12.2813 30.8869 13.3752C29.7929 14.4692 29.1783 15.9529 29.1783 17.5C29.1871 22.3621 31.1325 26.25 35.0233 29.1667H35L58.2488 42.0817C59.1586 42.5869 59.9167 43.3264 60.4444 44.2234C60.9721 45.1204 61.2503 46.1422 61.25 47.1829V49.5833C61.25 51.1304 60.6354 52.6142 59.5415 53.7081C58.4475 54.8021 56.9638 55.4167 55.4167 55.4167H14.5833C13.0362 55.4167 11.5525 54.8021 10.4585 53.7081C9.36458 52.6142 8.75 51.1304 8.75 49.5833V47.1829C8.74973 46.1422 9.02788 45.1204 9.55561 44.2234C10.0833 43.3264 10.8414 42.5869 11.7512 42.0817L35 29.1667" stroke="#275497" stroke-opacity="0.5" stroke-width="4.375" stroke-linecap="round" stroke-linejoin="round"/>
</g>
<defs>
<clipPath id="clip0_108_66">
<rect width="70" height="70" fill="white"/>
</clipPath>
</defs>
</svg>
