<svg width="20" height="20" viewBox="0 0 20 20" fill="none" xmlns="http://www.w3.org/2000/svg">
<g clip-path="url(#clip0_29_12)">
<path d="M20 3.7975C19.2642 4.12417 18.4733 4.34417 17.6433 4.44334C18.4908 3.93584 19.1417 3.13167 19.4475 2.17334C18.655 2.64334 17.7767 2.985 16.8417 3.16917C16.0942 2.37167 15.0267 1.87334 13.8467 1.87334C11.1975 1.87334 9.25083 4.345 9.84917 6.91084C6.44 6.74 3.41667 5.10667 1.3925 2.62417C0.3175 4.46834 0.835 6.88084 2.66167 8.1025C1.99 8.08084 1.35667 7.89667 0.804167 7.58917C0.759167 9.49 2.12167 11.2683 4.095 11.6642C3.5175 11.8208 2.885 11.8575 2.24167 11.7342C2.76333 13.3642 4.27833 14.55 6.075 14.5833C4.35 15.9358 2.17667 16.54 0 16.2833C1.81583 17.4475 3.97333 18.1267 6.29 18.1267C13.9083 18.1267 18.2125 11.6925 17.9525 5.92167C18.7542 5.3425 19.45 4.62 20 3.7975V3.7975Z" fill="black"/>
</g>
<defs>
<clipPath id="clip0_29_12">
<rect width="20" height="20" fill="white"/>
</clipPath>
</defs>
</svg>
