<svg width="512" height="512" viewBox="0 0 512 512" fill="none" xmlns="http://www.w3.org/2000/svg">
<path d="M64 128C64 104.436 83.1025 85.3333 106.667 85.3333C130.231 85.3333 149.333 104.436 149.333 128C149.333 151.564 130.231 170.667 106.667 170.667C83.1025 170.667 64 151.564 64 128Z" fill="#48C9B0"/>
<path d="M64 277.333C64 253.769 83.1025 234.667 106.667 234.667C130.231 234.667 149.333 253.769 149.333 277.333V384C149.333 407.564 130.231 426.667 106.667 426.667C83.1025 426.667 64 407.564 64 384V277.333Z" fill="#52BE80"/>
<path d="M213.333 469.333C213.333 492.897 232.436 512 256 512C279.564 512 298.667 492.897 298.667 469.333C298.667 445.769 279.564 426.667 256 426.667C232.436 426.667 213.333 445.769 213.333 469.333Z" fill="#EC7063"/>
<path d="M213.333 320C213.333 343.564 232.436 362.667 256 362.667C279.564 362.667 298.667 343.564 298.667 320V42.6667C298.667 19.1025 279.564 0 256 0C232.436 0 213.333 19.1025 213.333 42.6667V320Z" fill="#AF7AC5"/>
<path d="M362.667 384C362.667 407.564 381.769 426.667 405.333 426.667C428.898 426.667 448 407.564 448 384V128C448 104.436 428.898 85.3334 405.333 85.3334C381.769 85.3334 362.667 104.436 362.667 128V384Z" fill="#F5B041"/>
</svg>
